<svg xmlns="http://www.w3.org/2000/svg" xmlns:xlink="http://www.w3.org/1999/xlink" width="396.762" height="130.229" viewBox="0 0 396.762 130.229"><defs><filter id="a" x="266.534" y="0" width="130.228" height="130.229" filterUnits="userSpaceOnUse"><feOffset dy="2" input="SourceAlpha"/><feGaussianBlur stdDeviation="2" result="b"/><feFlood flood-opacity="0.161"/><feComposite operator="in" in2="b"/><feComposite in="SourceGraphic"/></filter><filter id="c" x="0" y="0" width="130.228" height="130.229" filterUnits="userSpaceOnUse"><feOffset dy="2" input="SourceAlpha"/><feGaussianBlur stdDeviation="2" result="d"/><feFlood flood-opacity="0.161"/><feComposite operator="in" in2="d"/><feComposite in="SourceGraphic"/></filter><linearGradient id="e" x1="0.919" y1="0.403" x2="0.282" y2="0.817" gradientUnits="objectBoundingBox"><stop offset="0.18" stop-color="#0052cc"/><stop offset="1" stop-color="#2684ff"/></linearGradient><linearGradient id="f" x1="0.087" y1="0.592" x2="0.723" y2="0.18" xlink:href="#e"/><filter id="g" x="133.762" y="0" width="129.708" height="129.708" filterUnits="userSpaceOnUse"><feOffset dy="2" input="SourceAlpha"/><feGaussianBlur stdDeviation="2" result="h"/><feFlood flood-opacity="0.161"/><feComposite operator="in" in2="h"/><feComposite in="SourceGraphic"/></filter><linearGradient id="i" x1="1.548" y1="-6.576" x2="1.548" y2="-6.58" gradientUnits="objectBoundingBox"><stop offset="0" stop-color="#368dcc"/><stop offset="1" stop-color="#0b7abf"/></linearGradient><linearGradient id="j" x1="0.5" y1="1" x2="0.5" gradientUnits="objectBoundingBox"><stop offset="0" stop-color="#0b7abf"/><stop offset="1" stop-color="#368dcc"/></linearGradient></defs><g transform="translate(-766 -872)"><g transform="translate(1038.534 876)"><g transform="matrix(1, 0, 0, 1, -272.53, -4)" filter="url(#a)"><ellipse cx="59.114" cy="59.115" rx="59.114" ry="59.115" transform="translate(272.53 4)" fill="#fff"/></g><g transform="translate(36 26)"><g transform="translate(1)"><path d="M42,33.31H25.492a1.8,1.8,0,0,1-1.8-1.8V25.845a.6.6,0,0,1,1.2,0v5.667a.6.6,0,0,0,.6.6H42.027a.6.6,0,0,0,.6-.6V1.8a.6.6,0,0,0-.6-.6H25.492a.6.6,0,0,0-.6.6v6.47a.6.6,0,1,1-1.2,0V1.8a1.8,1.8,0,0,1,1.8-1.8H42.027a1.8,1.8,0,0,1,1.8,1.8V31.513a1.8,1.8,0,0,1-1.8,1.8ZM18.3,28.637H1.8A1.8,1.8,0,0,1,0,26.84V1.8A1.8,1.8,0,0,1,1.8,0H18.3a1.8,1.8,0,0,1,1.8,1.8v6.47a.6.6,0,1,1-1.2,0V1.8a.6.6,0,0,0-.6-.6H1.8a.6.6,0,0,0-.6.6V26.84a.6.6,0,0,0,.6.6H18.3a.6.6,0,0,0,.6-.6v-.971a.6.6,0,1,1,1.2,0v.971A1.8,1.8,0,0,1,18.3,28.637Z" fill="#79b8ff"/><path d="M24.9,8.6H43.477V9.8H24.9ZM1.6,8.6H20.172V9.8H1.6Z" transform="translate(-0.641 -3.448)" fill="#79b8ff"/><path d="M44.9,30.172H20.7a1.8,1.8,0,0,1-1.8-1.8V20.047a1.8,1.8,0,0,1,1.8-1.8H44.9a1.8,1.8,0,0,1,1.8,1.8v8.327a1.8,1.8,0,0,1-1.8,1.8ZM20.7,19.448a.6.6,0,0,0-.6.6v8.327a.6.6,0,0,0,.6.6H44.9a.6.6,0,0,0,.6-.6V20.047a.6.6,0,0,0-.6-.6Z" transform="translate(-7.577 -7.316)" fill="#2088ff"/><path d="M22.025,26.778H19.845A1.432,1.432,0,0,1,18.58,25.4V23.3a1.4,1.4,0,0,1,1.378-1.378h2.1A1.4,1.4,0,0,1,23.373,23.3v2.1a1.4,1.4,0,0,1-1.348,1.378Zm-2.043-1.2h2.043a.192.192,0,0,0,.18-.18V23.3a.192.192,0,0,0-.18-.18h-2.1a.192.192,0,0,0-.18.18v2.1a.258.258,0,0,0,.234.18Zm17.5-.659H26.459a.6.6,0,1,1,0-1.2H37.482a.6.6,0,0,1,0,1.2Zm-24.671.042a.6.6,0,0,1-.27-.066l-.282-.12a4.11,4.11,0,0,1-.4-.156.6.6,0,0,1,.533-1.072l.282.12a4.109,4.109,0,0,1,.4.168.6.6,0,0,1-.264,1.126Zm-2.378-1.474a.6.6,0,0,1-.425-.174,7.453,7.453,0,0,1-1.012-1.234A.6.6,0,0,1,10,21.434a6.225,6.225,0,0,0,.851,1,.6.6,0,0,1-.419,1.054ZM8.839,20.535a.6.6,0,0,1-.6-.455,3.672,3.672,0,0,1-.072-.881.6.6,0,0,1,1.2,0,2.864,2.864,0,0,0,.036.6.6.6,0,0,1-.443.719Z" transform="translate(-3.273 -7.457)" fill="#2088ff"/></g><text transform="translate(23 49)" fill="#4a4a4a" font-size="12" font-family="IBMPlexSans-Bold, IBM Plex Sans" font-weight="700"><tspan x="-21.312" y="0">GitHub </tspan><tspan x="-23.166" y="15">Projects</tspan></text></g></g><g transform="translate(772 876)"><g transform="matrix(1, 0, 0, 1, -6, -4)" filter="url(#c)"><ellipse cx="59.114" cy="59.115" rx="59.114" ry="59.115" transform="translate(6 4)" fill="#fff"/></g><g transform="translate(35.061 23)"><path d="M46.979,56.557,26.1,35.674,24.072,33.65h0L8.346,49.37h0L1.165,56.557a1.922,1.922,0,0,0,0,2.716L15.526,73.635l8.539,8.545,15.72-15.72.25-.243,6.944-6.944A1.922,1.922,0,0,0,46.979,56.557ZM24.065,65.1l-7.194-7.181,7.174-7.174,7.181,7.174Z" transform="translate(-0.603 -33.65)" fill="#2684ff"/><path d="M28.4,50.773a12.075,12.075,0,0,1-.045-17.033L12.65,49.434,21.2,57.979l7.2-7.2Z" transform="translate(-4.933 -33.682)" fill="url(#e)"/><path d="M44.43,71.5l-7.2,7.2a12.075,12.075,0,0,1,0,17.084h0L52.975,80.045Z" transform="translate(-13.767 -47.254)" fill="url(#f)"/><text transform="translate(23.939 69.53)" fill="#4a4a4a" font-size="12" font-family="IBMPlexSans-Bold, IBM Plex Sans" font-weight="700"><tspan x="-10.824" y="0">Jira</tspan></text></g></g><g transform="translate(905.761 876)"><g transform="matrix(1, 0, 0, 1, -139.76, -4)" filter="url(#g)"><ellipse cx="58.854" cy="58.854" rx="58.854" ry="58.854" transform="translate(139.76 4)" fill="#fff"/></g><g transform="translate(13.502 46.392)"><path d="M198.39,19.169c-1.379.563-2.467,2.5-4.121,3.605a.546.546,0,0,1-.274.1c-.136,0-.307-.136-.307-.752,0-2.121.683-3.147,1.266-4.651,2.015-5.232,5.472-9.712,8.549-14.609a2.265,2.265,0,0,0,.376-1.231,2.494,2.494,0,0,0-.307-1.06A1.694,1.694,0,0,0,202.135,0c-.376,0-.719.034-1.162.034-1.607,0-1.949,2.359-2.326,2.975a112.032,112.032,0,0,0-7.01,13.507c-.336.851-.687,1.7-.957,2.576-1.488.43-2.6,2.519-4.344,3.682a.546.546,0,0,1-.274.1c-.136,0-.307-.136-.307-.752,0-2.121.683-3.147,1.266-4.651,2.015-5.232,5.472-9.712,8.549-14.609a2.265,2.265,0,0,0,.376-1.231,2.5,2.5,0,0,0-.307-1.06A1.682,1.682,0,0,0,194.2,0c-.376,0-.719.034-1.162.034-1.607,0-1.95,2.359-2.326,2.975a112.04,112.04,0,0,0-7.01,13.507c-.119.309-.243.616-.364.927l-.114.065c-1.745,1.026-3.214,2.838-5.335,4.07a6.239,6.239,0,0,1-2.7,1.128,1.414,1.414,0,0,1-.65-.168,1.575,1.575,0,0,1-.616-.992c0-.168.034-.2.376-.41a30.323,30.323,0,0,0,7.591-7.01,8.072,8.072,0,0,0,1.812-4.2,2.239,2.239,0,0,0-1.368-2.29,7.052,7.052,0,0,0-2.289-.418,5.373,5.373,0,0,0-3.9,1.607c-.766.818-1.511,1.657-2.195,2.519a4.15,4.15,0,0,0-2.7-.885c-1.128,0-3.249,1.4-4.342,2.223-.168.136-.274.2-.336.2-.034,0-.069-.034-.069-.1a5.5,5.5,0,0,0,.069-.89,3.535,3.535,0,0,0-.547-1.847,2.073,2.073,0,0,0-1.471-.547c-.924,0-1.778.445-1.778.924,0,.336.307.479.307.786a10.842,10.842,0,0,1-.336,1.709c-.581,2.183-1.3,4.342-2.052,6.5-.41,1.2-1.778,2.257-1.778,3.556a2.306,2.306,0,0,0,.65,1.369c.616.683.992.924,1.538.924a1.14,1.14,0,0,0,.752-.274,2.61,2.61,0,0,0,.924-1.511,13.62,13.62,0,0,1,6.292-8.584,12.705,12.705,0,0,1,2.428-1.266,3.294,3.294,0,0,1,.725.168,16.692,16.692,0,0,0-1.847,4.116,4.971,4.971,0,0,0-.2,1.4,7.387,7.387,0,0,0,.445,2.394,4.3,4.3,0,0,0,1.847,2.5,8.517,8.517,0,0,0,3.728,1.266,2.816,2.816,0,0,0,1.511-.376,28.483,28.483,0,0,0,4.621-3.093,2.6,2.6,0,0,0,.816,2,5.478,5.478,0,0,0,2.838,1.511,3.768,3.768,0,0,0,.616.069c1.447,0,2.841-1.175,3.916-2.351a3.091,3.091,0,0,0,.564.771,5.477,5.477,0,0,0,2.838,1.511,3.768,3.768,0,0,0,.616.069c1.7,0,3.316-1.615,4.438-2.937a5.828,5.828,0,0,0,2.675,2.149,2.612,2.612,0,0,0,1.128.274c1.471,0,2.53-1.2,3.358-2.086,2.121-2.326,3.283-5.205,4.173-8.822.069-.274.168-.376.307-.376a8.731,8.731,0,0,0,1.266-.069c.924-.136,1.642-.445,2.5-.581.512-.1.445-.274.924-.445.336-.136.616-.274.616-.616,0-.581-1.06-1.2-2.668-1.2-1.266,0-2.015.1-2.53.1-.786,0-.992-.24-1.511-1.573h0a1.5,1.5,0,0,0-.546-.688,3.588,3.588,0,0,0-2.321-.828c-1.709,0-3.18,1.745-4.2,3.214-.24.336-.581.616-.821.992C199.9,14.219,198.557,16.6,198.39,19.169ZM154.668,7.523c.855,0,1.333-.069,1.436-.069s.168.034.168.136a2.358,2.358,0,0,1-.274.683,78.077,78.077,0,0,0-4.782,14.06,5.551,5.551,0,0,0-.136,1.162,1.365,1.365,0,0,0,.616,1.266,4.718,4.718,0,0,0,2.183.786c.752,0,1.128-.479,1.128-1.266a11.371,11.371,0,0,1,.136-1.95A42.92,42.92,0,0,1,159.76,9.267a15.336,15.336,0,0,0,1.2-2.215.546.546,0,0,0-.1-.274,21.47,21.47,0,0,1,4.514-.512,2.9,2.9,0,0,1,.957.336,1.217,1.217,0,0,0,.89.479,2.751,2.751,0,0,0,1.128-.376,1.485,1.485,0,0,0,.719-1.333c0-.581-2.154-2.015-3.659-2.015a26.145,26.145,0,0,0-5.095.547,32.062,32.062,0,0,1-4.925.512,16.142,16.142,0,0,1-2.326-.24,1.019,1.019,0,0,0-.786.376A2.943,2.943,0,0,0,152,6.023a1.1,1.1,0,0,0,.168.752,3.238,3.238,0,0,0,2.5.752Zm25.34,2.771c0,.307-.1.512-.512,1.162a10.74,10.74,0,0,1-.752,1.333,29.46,29.46,0,0,1-3.833,4.139c-.445.41-.512.41-.581.41a.109.109,0,0,1-.1-.1c0-.1.034-.24.376-.957a17.687,17.687,0,0,1,3.8-5.13c.786-.786,1.266-1.06,1.436-1.06.1,0,.168.034.168.2Zm26.3.89q.052,0,.1.1a.737.737,0,0,0,.274.336c.136.1.136.581.136.957,0,3.316-1.881,6.045-3.728,8.822-.41.616-.65.719-.855.719-.168,0-.445-.445-.547-.719a3.3,3.3,0,0,1-.168-.992c0-2.668,2.531-6.634,4.2-8.822.274-.376.479-.41.581-.41Z" transform="translate(-125.711)" fill="url(#i)"/><path d="M18.891,22.5H2.7A2.7,2.7,0,0,0,0,25.2V41.391a2.7,2.7,0,0,0,2.7,2.7H18.891a2.7,2.7,0,0,0,2.7-2.7V25.2A2.7,2.7,0,0,0,18.891,22.5Zm-9.5,16.353A1.3,1.3,0,0,1,8.1,40.148H4.1a1.3,1.3,0,0,1-1.295-1.295V26.6A1.3,1.3,0,0,1,4.1,25.3H8.1A1.3,1.3,0,0,1,9.39,26.6Zm9.392-5.4a1.3,1.3,0,0,1-1.295,1.295H13.494A1.3,1.3,0,0,1,12.2,33.457V26.6a1.3,1.3,0,0,1,1.295-1.295h3.995A1.3,1.3,0,0,1,18.783,26.6Z" transform="translate(0 -18.722)" fill="url(#j)"/></g></g></g></svg>